HIERARCHY
ROOT Model
{
	OFFSET 0 0 0
	CHANNELS 6 Xposition Yposition Zposition Zrotation Xrotation Yrotation
	JOINT Model1
	{
		OFFSET 0 -2.25479 2.99384
		CHANNELS 3 Zrotation Xrotation Yrotation
		JOINT Model2
		{
			OFFSET 12.111 0 0
			CHANNELS 3 Zrotation Xrotation Yrotation
			JOINT Model3
			{
				OFFSET 11.5502 0 0
				CHANNELS 3 Zrotation Xrotation Yrotation
				JOINT Model4
				{
					OFFSET 11.781 0 0
					CHANNELS 3 Zrotation Xrotation Yrotation
					JOINT Model5
					{
						OFFSET 20.0601 0 0
						CHANNELS 3 Zrotation Xrotation Yrotation
						JOINT Model6
						{
							OFFSET 11.1962 0 0
							CHANNELS 3 Zrotation Xrotation Yrotation
							End Site
							{
								OFFSET 0 0 0
							}
						}
					}
					JOINT Model7
					{
						OFFSET 10.8223 0.417534 3.51114
						CHANNELS 3 Zrotation Xrotation Yrotation
						JOINT Model8
						{
							OFFSET -6.07943 0 0
							CHANNELS 3 Zrotation Xrotation Yrotation
							JOINT Model9
							{
								OFFSET -0.277416 10.39 -0.051239
								CHANNELS 3 Zrotation Xrotation Yrotation
								JOINT Model10
								{
									OFFSET -3.4391 -0.282043 1.86679
									CHANNELS 3 Zrotation Xrotation Yrotation
									JOINT Model11
									{
										OFFSET 13.0269 0 0
										CHANNELS 3 Zrotation Xrotation Yrotation
										JOINT Model12
										{
											OFFSET 10.8866 0 0
											CHANNELS 3 Zrotation Xrotation Yrotation
											JOINT Model13
											{
												OFFSET 16.7317 0 0
												CHANNELS 3 Zrotation Xrotation Yrotation
												JOINT Model14
												{
													OFFSET 11.8292 0 0
													CHANNELS 3 Zrotation Xrotation Yrotation
													JOINT Model15
													{
														OFFSET 4.82751 -3.73566 -0.836517
														CHANNELS 3 Zrotation Xrotation Yrotation
														JOINT Model16
														{
															OFFSET 3.75311 -0.0582886 -0.0186462
															CHANNELS 3 Zrotation Xrotation Yrotation
															JOINT Model17
															{
																OFFSET 2.88688 0.0192337 0.014801
																CHANNELS 3 Zrotation Xrotation Yrotation
																End Site
																{
																	OFFSET 0 0 0
																}
															}
														}
													}
													JOINT Model18
													{
														OFFSET 9.72197 -3.06458 0.23877
														CHANNELS 3 Zrotation Xrotation Yrotation
														JOINT Model19
														{
															OFFSET 4.61131 0 0
															CHANNELS 3 Zrotation Xrotation Yrotation
															JOINT Model20
															{
																OFFSET 2.8969 -7.62939e-006 0
																CHANNELS 3 Zrotation Xrotation Yrotation
																End Site
																{
																	OFFSET 0 0 0
																}
															}
														}
													}
													JOINT Model21
													{
														OFFSET 9.54431 -0.745064 0.588928
														CHANNELS 3 Zrotation Xrotation Yrotation
														JOINT Model22
														{
															OFFSET 5.33978 0 0
															CHANNELS 3 Zrotation Xrotation Yrotation
															JOINT Model23
															{
																OFFSET 3.03619 7.62939e-006 0
																CHANNELS 3 Zrotation Xrotation Yrotation
																End Site
																{
																	OFFSET 0 0 0
																}
															}
														}
													}
													JOINT Model24
													{
														OFFSET 9.47759 1.51286 0.485107
														CHANNELS 3 Zrotation Xrotation Yrotation
														JOINT Model25
														{
															OFFSET 4.96136 7.62939e-006 0
															CHANNELS 3 Zrotation Xrotation Yrotation
															JOINT Model26
															{
																OFFSET 2.51966 0 0
																CHANNELS 3 Zrotation Xrotation Yrotation
																End Site
																{
																	OFFSET 0 0 0
																}
															}
														}
													}
													JOINT Model27
													{
														OFFSET 9.34247 3.34117 -0.239288
														CHANNELS 3 Zrotation Xrotation Yrotation
														JOINT Model28
														{
															OFFSET 3.2826 2.28882e-005 0
															CHANNELS 3 Zrotation Xrotation Yrotation
															JOINT Model29
															{
																OFFSET 2.1292 0 0
																CHANNELS 3 Zrotation Xrotation Yrotation
																End Site
																{
																	OFFSET 0 0 0
																}
															}
														}
													}
												}
											}
										}
									}
								}
							}
						}
					}
					JOINT Model30
					{
						OFFSET 10.8223 0.4179 -3.51108
						CHANNELS 3 Zrotation Xrotation Yrotation
						JOINT Model31
						{
							OFFSET 6.07943 0 0
							CHANNELS 3 Zrotation Xrotation Yrotation
							JOINT Model32
							{
								OFFSET 0.277416 -10.39 0.051239
								CHANNELS 3 Zrotation Xrotation Yrotation
								JOINT Model33
								{
									OFFSET 3.4391 0.282043 -1.86679
									CHANNELS 3 Zrotation Xrotation Yrotation
									JOINT Model34
									{
										OFFSET -13.0269 0 0
										CHANNELS 3 Zrotation Xrotation Yrotation
										JOINT Model35
										{
											OFFSET -10.8866 0 0
											CHANNELS 3 Zrotation Xrotation Yrotation
											JOINT Model36
											{
												OFFSET -16.7317 0 0
												CHANNELS 3 Zrotation Xrotation Yrotation
												JOINT Model37
												{
													OFFSET -11.8292 0 0
													CHANNELS 3 Zrotation Xrotation Yrotation
													JOINT Model38
													{
														OFFSET -4.82751 3.73566 0.836517
														CHANNELS 3 Zrotation Xrotation Yrotation
														JOINT Model39
														{
															OFFSET -3.75311 0.0582886 0.0186462
															CHANNELS 3 Zrotation Xrotation Yrotation
															JOINT Model40
															{
																OFFSET -2.88688 -0.0192337 -0.014801
																CHANNELS 3 Zrotation Xrotation Yrotation
																End Site
																{
																	OFFSET 0 0 0
																}
															}
														}
													}
													JOINT Model41
													{
														OFFSET -9.72197 3.06459 -0.23877
														CHANNELS 3 Zrotation Xrotation Yrotation
														JOINT Model42
														{
															OFFSET -4.6113 0 0
															CHANNELS 3 Zrotation Xrotation Yrotation
															JOINT Model43
															{
																OFFSET -2.8969 0 0
																CHANNELS 3 Zrotation Xrotation Yrotation
																End Site
																{
																	OFFSET 0 0 0
																}
															}
														}
													}
													JOINT Model44
													{
														OFFSET -9.5443 0.745064 -0.588928
														CHANNELS 3 Zrotation Xrotation Yrotation
														JOINT Model45
														{
															OFFSET -5.33978 0 0
															CHANNELS 3 Zrotation Xrotation Yrotation
															JOINT Model46
															{
																OFFSET -3.03619 -1.52588e-005 0
																CHANNELS 3 Zrotation Xrotation Yrotation
																End Site
																{
																	OFFSET 0 0 0
																}
															}
														}
													}
													JOINT Model47
													{
														OFFSET -9.47759 -1.51286 -0.485107
														CHANNELS 3 Zrotation Xrotation Yrotation
														JOINT Model48
														{
															OFFSET -4.96136 -1.52588e-005 0
															CHANNELS 3 Zrotation Xrotation Yrotation
															JOINT Model49
															{
																OFFSET -2.51966 0 0
																CHANNELS 3 Zrotation Xrotation Yrotation
																End Site
																{
																	OFFSET 0 0 0
																}
															}
														}
													}
													JOINT Model50
													{
														OFFSET -9.34246 -3.34118 0.239288
														CHANNELS 3 Zrotation Xrotation Yrotation
														JOINT Model51
														{
															OFFSET -3.2826 -2.28882e-005 0
															CHANNELS 3 Zrotation Xrotation Yrotation
															JOINT Model52
															{
																OFFSET -2.1292 0 0
																CHANNELS 3 Zrotation Xrotation Yrotation
																End Site
																{
																	OFFSET 0 0 0
																}
															}
														}
													}
												}
											}
										}
									}
								}
							}
						}
					}
				}
			}
		}
	}
	JOINT Model53
	{
		OFFSET 4.38026 -2.14632 -1.11517
		CHANNELS 3 Zrotation Xrotation Yrotation
		JOINT Model54
		{
			OFFSET 0 0 4.94998
			CHANNELS 3 Zrotation Xrotation Yrotation
			JOINT Model55
			{
				OFFSET 18.5642 0 0
				CHANNELS 3 Zrotation Xrotation Yrotation
				JOINT Model56
				{
					OFFSET 21.2884 0 0
					CHANNELS 3 Zrotation Xrotation Yrotation
					JOINT Model57
					{
						OFFSET 30.261 0 0
						CHANNELS 3 Zrotation Xrotation Yrotation
						JOINT Model58
						{
							OFFSET 11.7259 0 0
							CHANNELS 3 Zrotation Xrotation Yrotation
							JOINT Model59
							{
								OFFSET 10.682 0 0
								CHANNELS 3 Zrotation Xrotation Yrotation
								End Site
								{
									OFFSET 0 0 0
								}
							}
						}
					}
				}
			}
		}
	}
	JOINT Model60
	{
		OFFSET -4.38026 -2.14632 -1.11517
		CHANNELS 3 Zrotation Xrotation Yrotation
		JOINT Model61
		{
			OFFSET 0 0 -4.94998
			CHANNELS 3 Zrotation Xrotation Yrotation
			JOINT Model62
			{
				OFFSET -18.5642 0 0
				CHANNELS 3 Zrotation Xrotation Yrotation
				JOINT Model63
				{
					OFFSET -21.2884 0 0
					CHANNELS 3 Zrotation Xrotation Yrotation
					JOINT Model64
					{
						OFFSET -30.261 0 0
						CHANNELS 3 Zrotation Xrotation Yrotation
						JOINT Model65
						{
							OFFSET -11.7259 0 0
							CHANNELS 3 Zrotation Xrotation Yrotation
							JOINT Model66
							{
								OFFSET -10.682 0 0
								CHANNELS 3 Zrotation Xrotation Yrotation
								End Site
								{
									OFFSET 0 0 0
								}
							}
						}
					}
				}
			}
		}
	}
}
MOTION
Frames: 4
Frame Time: 0.033333
-69.7206 173.25 -360.812 112.894 13.9699 87.459 -180 4.29621e-031 -90 4.03954 -3.28695 0.0658029 8.10285 -6.56148 0.364715 8.10285 -6.56105 0.364653 46.4074 -15.2363 44.4673 -27.836 -25.1655 0.870305 120.092 75.5343 58.4939 -5.88868 2.81674 2.36907 -167.277 84.4999 48.8109 172.036 10.3807 32.3268 -3.87022e-007 28.7599 3.63174e-005 -63.4718 -15.9492 0.567511 -2.42419e-006 -24.5882 -3.04364e-006 24.8152 2.08345 9.44965 -72.0648 39.0385 39.3397 33.3638 2.10362 14.835 0.588947 0.308273 6.35287 -99.6409 81.413 100.35 -0.0181409 2.7712e-005 -0.117315 -0.124139 0.00241103 -0.799296 -79.8382 79.5773 80.5374 -0.00022578 -0.000220993 2.22227e-005 -0.000956232 0.000122799 -2.72825e-005 -66.7416 80.4058 67.2171 -0.000437135 1.58778e-005 -2.72922e-005 -0.000136607 -0.000109383 -5.4603e-005 -6.42159 81.2158 8.01779 -0.000218567 1.68482e-005 0.000212168 0.000901584 -0.000184883 -0.000218528 -59.9282 75.5373 58.5147 -24.1316 -14.5036 -3.45864 -167.277 84.4999 48.8109 -158.823 14.7727 15.9486 -2.14385e-005 37.5698 4.6596e-005 -106.036 20.0396 0.623733 -1.27255e-005 29.9189 6.7638e-006 -11.7904 -0.27791 2.69096 -72.0648 39.0385 39.3397 33.3638 2.10361 14.835 0.588946 0.308273 6.35287 -99.6409 81.413 100.35 -0.0181409 3.01201e-005 -0.117315 -0.124139 0.00241119 -0.799296 -79.8382 79.5773 80.5374 -0.000260633 -0.000218523 2.35587e-005 -0.000956209 0.000123055 -2.73365e-005 -66.7416 80.4058 67.2171 -0.00043712 1.49239e-005 -2.73333e-005 -0.000136588 -0.000109225 -5.46585e-005 -6.42159 81.2158 8.01779 -0.000218557 1.96142e-005 0.000212283 0.000901595 -0.000191197 -0.000218585 0.000811311 0.56661 89.91 -12.2256 -10.9807 -17.8175 2.60684e-006 -4.3735 -1.46165e-007 62.2004 -0.420062 -0.00741195 3.45019e-007 -0.737616 3.24355e-007 -57.4604 -3.0672 1.49993 -35.4947 -4.04e-006 2.34625e-006 -180 -0.566579 -90.09 3.43578 -8.63562 -7.18401 -3.63711e-006 -6.17576 -3.67833e-007 37.0081 3.21245 9.11061 3.14514e-007 4.80825 -3.81221e-007 -68.9314 14.5513 -8.71683 -35.4947 7.30933e-007 4.06002e-006 
-69.8025 173.424 -361.406 112.768 13.7822 87.2993 -180 4.29621e-031 -90 4.06234 -3.2914 0.0584563 8.14822 -6.57078 0.351637 8.14821 -6.57034 0.351575 46.1479 -15.2924 44.5434 -27.529 -25.1015 0.811892 120.092 75.5343 58.4939 -5.83586 2.84679 2.36915 -167.277 84.4999 48.8109 171.968 10.5075 32.7556 -4.46588e-007 28.8422 3.63461e-005 -63.0746 -15.9644 0.565588 -2.42559e-006 -24.612 -3.04422e-006 24.5555 2.03607 9.33601 -72.0648 39.0385 39.3397 33.3638 2.10362 14.835 0.588947 0.308273 6.35287 -99.6409 81.413 100.35 -0.0181409 2.7712e-005 -0.117315 -0.124139 0.00241103 -0.799296 -79.8382 79.5773 80.5374 -0.00022578 -0.000220993 2.22227e-005 -0.000956232 0.000122799 -2.72825e-005 -66.7416 80.4058 67.2171 -0.000437135 1.58778e-005 -2.72922e-005 -0.000136607 -0.000109383 -5.4603e-005 -6.42159 81.2158 8.01779 -0.000218567 1.68482e-005 0.000212168 0.000901584 -0.000184883 -0.000218528 -59.9282 75.5373 58.5147 -24.123 -14.5518 -3.48741 -167.277 84.4999 48.8109 -158.869 14.7426 16.0859 -2.12919e-005 37.4266 4.65068e-005 -105.786 20.1512 0.624951 -1.27477e-005 30.0812 6.77487e-006 -11.8846 -0.276922 2.65999 -72.0648 39.0385 39.3397 33.3638 2.10361 14.835 0.588946 0.308273 6.35287 -99.6409 81.413 100.35 -0.0181409 3.01201e-005 -0.117315 -0.124139 0.00241119 -0.799296 -79.8382 79.5773 80.5374 -0.000260633 -0.000218523 2.35587e-005 -0.000956209 0.000123055 -2.73365e-005 -66.7416 80.4058 67.2171 -0.00043712 1.49239e-005 -2.73333e-005 -0.000136588 -0.000109225 -5.46585e-005 -6.42159 81.2158 8.01779 -0.000218557 1.96142e-005 0.000212283 0.000901595 -0.000191197 -0.000218585 0.000811311 0.56661 89.91 -14.8642 -10.8967 -19.31 2.60776e-006 -4.01185 -1.46097e-007 64.1802 0.0509409 -0.00753411 3.41031e-007 -0.0331784 3.24328e-007 -56.5816 -2.86243 1.4298 -35.4947 -3.87285e-006 2.22969e-006 -180 -0.566579 -90.09 3.52182 -8.83655 -7.86833 -3.63484e-006 -5.82403 -3.67596e-007 36.4515 3.37518 9.30317 3.1619e-007 5.05917 -3.81365e-007 -68.6512 14.4784 -8.71353 -35.4947 7.70438e-007 4.25867e-006 
-69.8751 173.592 -362.048 112.608 13.5175 87.2016 -180 4.29621e-031 -90 4.07382 -3.29976 0.0244551 8.16938 -6.58984 0.28482 8.16937 -6.58941 0.284757 45.792 -15.3775 44.4788 -27.3325 -24.974 0.693 120.092 75.5343 58.4939 -5.75811 2.72639 2.30962 -167.277 84.4999 48.8109 171.901 10.5743 32.8717 -5.13118e-007 28.934 3.63783e-005 -63.3567 -16.2711 0.567881 -2.45253e-006 -25.0713 -3.05554e-006 24.505 2.01935 9.27922 -72.0648 39.0385 39.3397 33.3638 2.10362 14.835 0.588947 0.308273 6.35287 -99.6409 81.413 100.35 -0.0181409 2.7712e-005 -0.117315 -0.124139 0.00241103 -0.799296 -79.8382 79.5773 80.5374 -0.00022578 -0.000220993 2.22227e-005 -0.000956232 0.000122799 -2.72825e-005 -66.7416 80.4058 67.2171 -0.000437135 1.58778e-005 -2.72922e-005 -0.000136607 -0.000109383 -5.4603e-005 -6.42159 81.2158 8.01779 -0.000218567 1.68482e-005 0.000212168 0.000901584 -0.000184883 -0.000218528 -59.9282 75.5373 58.5147 -23.9725 -14.4324 -3.42299 -167.277 84.4999 48.8109 -159.034 14.7989 16.1184 -2.1379e-005 37.5117 4.65597e-005 -105.857 20.0369 0.624274 -1.27245e-005 29.9112 6.76327e-006 -11.8304 -0.247678 2.39014 -72.0648 39.0385 39.3397 33.3638 2.10361 14.835 0.588946 0.308273 6.35287 -99.6409 81.413 100.35 -0.0181409 3.01201e-005 -0.117315 -0.124139 0.00241119 -0.799296 -79.8382 79.5773 80.5374 -0.000260633 -0.000218523 2.35587e-005 -0.000956209 0.000123055 -2.73365e-005 -66.7416 80.4058 67.2171 -0.00043712 1.49239e-005 -2.73333e-005 -0.000136588 -0.000109225 -5.46585e-005 -6.42159 81.2158 8.01779 -0.000218557 1.96142e-005 0.000212283 0.000901595 -0.000191197 -0.000218585 0.000811311 0.56661 89.91 -16.9231 -10.5896 -20.7704 2.60971e-006 -3.25035 -1.45974e-007 64.9144 0.0345188 -0.00757162 3.41175e-007 -0.058541 3.24328e-007 -56.7969 -3.59736 1.90749 -35.4947 -3.70079e-006 2.11059e-006 -180 -0.566579 -90.09 3.55843 -9.07068 -8.57154 -3.63281e-006 -5.5096 -3.67396e-007 35.9019 3.56546 9.42945 3.18143e-007 5.35127 -3.81542e-007 -68.3477 14.2444 -8.62479 -35.4947 8.09648e-007 4.45582e-006 
-69.9394 173.706 -362.757 112.374 13.1515 87.1816 -180 4.29621e-031 -90 4.06615 -3.30819 -0.0279332 8.15109 -6.61043 0.180081 8.15109 -6.61 0.180018 45.432 -15.4783 44.2078 -27.2604 -24.8385 0.647491 120.092 75.5343 58.4939 -5.73673 2.49753 2.22241 -167.277 84.4999 48.8109 171.826 10.5134 32.6646 -5.115e-007 28.9317 3.63775e-005 -64.0108 -16.6952 0.572352 -2.49006e-006 -25.7055 -3.07163e-006 24.6198 2.03596 9.31043 -72.0648 39.0385 39.3397 33.3638 2.10362 14.835 0.588947 0.308273 6.35287 -99.6409 81.413 100.35 -0.0181409 2.7712e-005 -0.117315 -0.124139 0.00241103 -0.799296 -79.8382 79.5773 80.5374 -0.00022578 -0.000220993 2.22227e-005 -0.000956232 0.000122799 -2.72825e-005 -66.7416 80.4058 67.2171 -0.000437135 1.58778e-005 -2.72922e-005 -0.000136607 -0.000109383 -5.4603e-005 -6.42159 81.2158 8.01779 -0.000218567 1.68482e-005 0.000212168 0.000901584 -0.000184883 -0.000218528 -59.9282 75.5373 58.5147 -23.6555 -14.1572 -3.27504 -167.277 84.4999 48.8109 -159.306 14.9339 16.024 -2.17034e-005 37.8271 4.6758e-005 -106.281 19.6213 0.621318 -1.26413e-005 29.2967 6.72218e-006 -11.5646 -0.225145 2.22301 -72.0648 39.0385 39.3397 33.3638 2.10361 14.835 0.588946 0.308273 6.35287 -99.6409 81.413 100.35 -0.0181409 3.01201e-005 -0.117315 -0.124139 0.00241119 -0.799296 -79.8382 79.5773 80.5374 -0.000260633 -0.000218523 2.35587e-005 -0.000956209 0.000123055 -2.73365e-005 -66.7416 80.4058 67.2171 -0.00043712 1.49239e-005 -2.73333e-005 -0.000136588 -0.000109225 -5.46585e-005 -6.42159 81.2158 8.01779 -0.000218557 1.96142e-005 0.000212283 0.000901595 -0.000191197 -0.000218585 0.000811311 0.56661 89.91 -18.3903 -9.99869 -22.0015 2.6127e-006 -2.07565 -1.45835e-007 64.435 -0.268712 -0.00755276 3.43747e-007 -0.512913 3.24341e-007 -57.2872 -4.29612 2.33138 -35.4947 -3.52437e-006 1.98934e-006 -180 -0.566579 -90.09 3.42639 -9.17637 -9.25532 -3.62983e-006 -5.04546 -3.67121e-007 35.5103 3.66938 9.57333 3.1922e-007 5.51226 -3.81644e-007 -68.1727 13.8814 -8.44799 -35.4947 8.48564e-007 4.65149e-006 
